<mxfile host="65bd71144e">
    <diagram id="n7PNd5ctvXiTQVo-c8xl" name="Page-1">
        <mxGraphModel dx="1713" dy="1635" grid="1" gridSize="10" guides="1" tooltips="1" connect="1" arrows="1" fold="1" page="1" pageScale="1" pageWidth="850" pageHeight="1100" background="#A7A4CD" math="0" shadow="0">
            <root>
                <mxCell id="0"/>
                <mxCell id="1" parent="0"/>
                <mxCell id="12" value="New" parent="0"/>
                <mxCell id="13" value="" style="rounded=1;whiteSpace=wrap;html=1;shadow=1;strokeColor=none;" vertex="1" parent="12">
                    <mxGeometry x="150" y="110" width="240" height="320" as="geometry"/>
                </mxCell>
                <mxCell id="14" value="&lt;pre&gt;&lt;br&gt;&lt;/pre&gt;" style="rounded=0;whiteSpace=wrap;html=1;fillColor=none;align=left;" vertex="1" parent="12">
                    <mxGeometry x="150" y="110" width="240" height="320" as="geometry"/>
                </mxCell>
                <mxCell id="15" value="CARD CONTAINER" style="text;html=1;align=center;verticalAlign=middle;whiteSpace=wrap;rounded=0;" vertex="1" parent="12">
                    <mxGeometry x="160" y="80" width="60" height="30" as="geometry"/>
                </mxCell>
                <mxCell id="16" value="&lt;h1&gt;&lt;font style=&quot;color: rgb(255, 0, 0);&quot;&gt;8&lt;/font&gt;&lt;/h1&gt;" style="text;html=1;align=center;verticalAlign=middle;whiteSpace=wrap;rounded=0;fontSize=75;fontColor=light-dark(#FF0000,#EDEDED);" vertex="1" parent="12">
                    <mxGeometry x="160" y="130" width="130" height="100" as="geometry"/>
                </mxCell>
                <mxCell id="17" value="&lt;font style=&quot;color: rgb(255, 0, 0);&quot;&gt;◆&lt;/font&gt;" style="text;html=1;align=center;verticalAlign=middle;whiteSpace=wrap;rounded=0;fontSize=200;fontColor=#FF0000;" vertex="1" parent="12">
                    <mxGeometry x="270" y="310" width="60" height="30" as="geometry"/>
                </mxCell>
                <mxCell id="18" value="" style="rounded=0;whiteSpace=wrap;html=1;fillColor=none;" vertex="1" parent="12">
                    <mxGeometry x="160" y="120" width="220" height="120" as="geometry"/>
                </mxCell>
                <mxCell id="19" value="" style="rounded=0;whiteSpace=wrap;html=1;fillColor=none;" vertex="1" parent="12">
                    <mxGeometry x="160" y="250" width="220" height="150" as="geometry"/>
                </mxCell>
                <mxCell id="21" value="NUMBER CONTAINER" style="text;html=1;align=center;verticalAlign=middle;whiteSpace=wrap;rounded=0;" vertex="1" parent="12">
                    <mxGeometry x="310" y="130" width="60" height="30" as="geometry"/>
                </mxCell>
                <mxCell id="22" value="SUIT CONTAINER" style="text;html=1;align=center;verticalAlign=middle;whiteSpace=wrap;rounded=0;" vertex="1" parent="12">
                    <mxGeometry x="170" y="260" width="60" height="30" as="geometry"/>
                </mxCell>
                <mxCell id="23" value="" style="rounded=1;whiteSpace=wrap;html=1;shadow=1;strokeColor=none;" vertex="1" parent="12">
                    <mxGeometry x="500" y="110" width="240" height="320" as="geometry"/>
                </mxCell>
                <mxCell id="24" value="&lt;pre&gt;&lt;br&gt;&lt;/pre&gt;" style="rounded=0;whiteSpace=wrap;html=1;fillColor=none;align=left;" vertex="1" parent="12">
                    <mxGeometry x="500" y="110" width="240" height="320" as="geometry"/>
                </mxCell>
                <mxCell id="25" value="CARD CONTAINER" style="text;html=1;align=center;verticalAlign=middle;whiteSpace=wrap;rounded=0;" vertex="1" parent="12">
                    <mxGeometry x="510" y="80" width="60" height="30" as="geometry"/>
                </mxCell>
                <mxCell id="26" value="&lt;h1&gt;&lt;font style=&quot;color: rgb(0, 0, 0);&quot;&gt;K&lt;/font&gt;&lt;/h1&gt;" style="text;html=1;align=center;verticalAlign=middle;whiteSpace=wrap;rounded=0;fontSize=75;fontColor=light-dark(#FF0000,#EDEDED);" vertex="1" parent="12">
                    <mxGeometry x="510" y="130" width="130" height="100" as="geometry"/>
                </mxCell>
                <mxCell id="27" value="&lt;font style=&quot;color: rgb(0, 0, 0);&quot;&gt;♠&lt;/font&gt;" style="text;html=1;align=center;verticalAlign=middle;whiteSpace=wrap;rounded=0;fontSize=200;fontColor=#FF0000;" vertex="1" parent="12">
                    <mxGeometry x="620" y="310" width="60" height="30" as="geometry"/>
                </mxCell>
                <mxCell id="28" value="" style="rounded=0;whiteSpace=wrap;html=1;fillColor=none;" vertex="1" parent="12">
                    <mxGeometry x="510" y="120" width="220" height="120" as="geometry"/>
                </mxCell>
                <mxCell id="29" value="" style="rounded=0;whiteSpace=wrap;html=1;fillColor=none;" vertex="1" parent="12">
                    <mxGeometry x="510" y="260" width="220" height="150" as="geometry"/>
                </mxCell>
                <mxCell id="30" value="NUMBER CONTAINER" style="text;html=1;align=center;verticalAlign=middle;whiteSpace=wrap;rounded=0;" vertex="1" parent="12">
                    <mxGeometry x="660" y="130" width="60" height="30" as="geometry"/>
                </mxCell>
                <mxCell id="31" value="SUIT CONTAINER" style="text;html=1;align=center;verticalAlign=middle;whiteSpace=wrap;rounded=0;" vertex="1" parent="12">
                    <mxGeometry x="520" y="260" width="60" height="30" as="geometry"/>
                </mxCell>
            </root>
        </mxGraphModel>
    </diagram>
</mxfile>